<?xml version="1.0" encoding="utf-8"?>
<!-- Generator: Adobe Illustrator 28.7.1, SVG Export Plug-In . SVG Version: 9.03 Build 54978)  -->
<svg version="1.1" id="Calque_2" xmlns="http://www.w3.org/2000/svg" xmlns:xlink="http://www.w3.org/1999/xlink" x="0px" y="0px"
	 viewBox="0 0 841.89 595.28" style="enable-background:new 0 0 841.89 595.28;" xml:space="preserve">
<style type="text/css">
	.st0{fill:#15385C;}
	.st1{fill:#FEFEFF;}
	.st2{fill:#0EA438;}
	.st3{fill:#C7CED3;}
	.st4{fill:#C1CBD2;}
</style>
<g>
	<path class="st0" d="M181.1,312.86c0.54-0.02,1.09,3.47,1.49,6.68c-1.03,1.89-2.41,4.15-3.09,3.92
		c-2.17-0.73,3.88-26.72,11.18-47.57c5.93-16.92,13.84-33.11,23.73-48.59c0.92-1.44,1.82-2.73,3.63-3.14
		c9.81-2.23,18.64-6.86,27.5-11.4c-0.2,2.18-0.2,2.18-5.07,5.07c-9.4,8.93-15.5,20.21-21.61,31.35
		c-15.52,28.32-25.09,58.43-26.47,90.95c-1.59,37.64,3.94,73.69,21.87,107.39c14.09,26.48,31.36,50.16,55.1,69.01
		c15.95,12.67,32.69,23.77,51.29,32.09c39.2,17.52,80.06,22.12,122.29,15.56c40.98-6.37,76.25-25.01,107.76-51.27
		c24.16-20.13,41.53-45.68,54.95-73.7c10.68-22.31,15.94-46.48,17.64-71.16c1.86-26.93-1.3-53.36-9.5-79.23
		c-8.48-26.74-21.74-50.78-39.09-72.68c-3.72-6.28-10.5-8.5-16.18-12.18c-0.13-0.03-0.25-0.06-0.38-0.1c0.15,0,0.3,0,0.45,0
		c-0.54,1.19,0.01,2.27,0.35,3.37c2.75,8.86,5.64,17.69,8.23,26.6c9.85,33.82,16.72,68.05,14.38,103.59
		c-1.1,16.74-4.54,32.93-11.32,48.23c-5.36,12.09-12.57,23.17-21.04,33.39c-10.26,10.22-20.69,19.81-33.94,26.68
		c-18.15,9.41-36.57,18.09-55.38,26.03c-16.78,7.08-34.18,13.02-48.03,25.58c-1.59,1.44-2.36,0.8-3.62-0.38
		c-3.51-3.29-7.33-6.18-11.55-8.57c-19.12-10.85-39.99-17.68-60.07-26.32c-11.35-5.71-22.64-11.62-34.07-17.08
		c-10.41-4.97-19.04-11.94-27.23-19.34c-11.11-10.03-19.57-22.49-26.7-35.73c-2.33-5.33-4.66-10.66-6.99-15.98
		c-2.35-8.48-4.91-16.91-6.16-25.66c-5.21-36.23-0.08-71.59,8.86-106.64c2.59-10.15,5.23-20.29,7.81-30.28
		c-1.31-1.18-2.7,2.13-3.65-0.47c31.45-21.37,48.06-51.91,54.7-88.58c4.21-23.26,4.04-46.65,1.3-70.04
		c-0.44-3.79,0.9-5.23,4.02-6.67c20.34-9.4,41.64-15.41,63.77-18.75c6.44-0.97,13.09-0.57,19.34-2.79c10,0,19.99,0,29.99,0
		c0.4,1.38,1.55,0.93,2.46,0.99c27.31,1.84,53.39,8.63,78.54,19.29c2.89,1.23,3.72,2.61,3.58,5.85
		c-1.25,29.69,2.45,58.76,12.44,86.82c14.65,41.17,40.9,71.48,82.7,86.86c2.48,0.91,3.69,2.65,4.91,4.62
		c31.45,50.75,42.29,105.61,32.37,164.46c-15.46,91.74-99.29,173.04-192.66,189.2c-24.66,4.27-45.52,3.18-58.86,1.7
		c0.84,0.34,1.68,0.68,2.52,1.02c-0.45-1.29-1.59-0.92-2.52-1.02c-16.59-1.69-33.01-4.57-48.7-10.21
		c-44.29-15.92-79.67-39.45-106.07-70.65c-9.98-11.79-42.24-52.36-51.85-114.69C174.81,351.89,179.32,312.91,181.1,312.86z
		 M349.59,443.9c1.62-0.14,2.63-1.35,3.83-2.21c14.95-10.86,29.94-21.66,44.8-32.65c2.86-2.12,4.92-2.33,7.87-0.11
		c11.31,8.49,22.81,16.75,34.26,25.06c4.67,3.39,9.4,6.69,14.1,10.03c0.41-2.29-0.05-3.99-0.6-5.65
		c-5.67-17.41-11.29-34.83-17.07-52.19c-0.99-2.97-0.63-4.71,2.08-6.62c11.16-7.85,22.15-15.97,33.18-24
		c5.3-3.86,10.57-7.75,16.14-11.85c-2.19-1.21-3.87-0.76-5.46-0.76c-18.49-0.04-36.97-0.1-55.46,0.05
		c-3.19,0.03-4.74-0.95-5.69-4.04c-3.64-11.76-7.51-23.45-11.33-35.16c-2.51-7.68-5.08-15.34-8.05-24.31
		c-6.54,20.22-12.77,39-18.62,57.9c-1.3,4.19-3.09,5.74-7.61,5.65c-15.15-0.3-30.31-0.11-45.47-0.11c-4.58,0-9.15,0-14.97,0
		c2.43,1.91,3.78,3.05,5.21,4.09c14.53,10.59,29.01,21.25,43.67,31.66c3.36,2.39,4.39,4.51,2.98,8.62
		c-5.72,16.68-11.08,33.49-16.53,50.27c-0.66,2.03-1.71,4.02-1.33,6.28c-0.13,0.14-0.26,0.28-0.39,0.42
		C349.28,444.14,349.43,444.02,349.59,443.9z"/>
	<path class="st1" d="M574.69,216.15c17.34,21.91,30.61,45.95,39.09,72.68c8.2,25.86,11.36,52.29,9.5,79.23
		c-1.71,24.68-6.96,48.84-17.64,71.16c-13.42,28.02-30.79,53.56-54.95,73.7c-31.5,26.26-66.77,44.9-107.76,51.27
		c-42.23,6.56-83.09,1.96-122.29-15.56c-18.59-8.31-35.34-19.42-51.29-32.09c-23.74-18.85-41.01-42.52-55.1-69.01
		c-17.93-33.7-23.47-69.75-21.87-107.39c1.38-32.52,10.95-62.63,26.47-90.95c6.11-11.14,12.21-22.42,21.61-31.35
		c0.26,0.56,0.91,1.34,0.73,1.65c-5.59,9.93-6.33,21.2-8.94,31.96c-3.26,13.44-5.06,27.11-5.36,40.86
		c-0.27,12.21-3.34,24.24-1.82,36.53c1.07,8.67-0.26,17.57,2.53,26.08c0.86,14.58,5.57,28.05,11.88,41.05
		c0.41,0.97,0.81,1.95,1.22,2.92c0.36,0.92,0.61,1.89,1.09,2.74c12.02,21.3,28.79,37.61,49.97,50.04
		c23.78,13.97,49.17,24.17,74.55,34.55c11.69,4.78,23.47,9.46,32.79,18.51c1.81,1.75,4.12,2.81,6.71,3.02
		c7.48,0.61,14.68,0.44,19.84-6.36c0.87-1.14,2.34-1.84,3.58-2.67c11.55-7.72,24.39-12.84,37.16-18.05
		c16.16-6.6,32.44-12.91,47.61-21.63c7.76-4.47,15.07-9.85,22.8-14.18c9.52-5.32,16.2-12.88,22.81-20.93
		c6.92-6.47,11.59-14.59,15.6-22.94c7.14-14.84,11.73-30.43,13.62-46.94c2.53-22.08,2.03-44.05-0.06-66.09
		c-1.13-11.9-4.47-23.33-6.76-34.98c-1.92-9.75-3.88-19.47-7.05-28.91C574.08,221.44,574.42,218.79,574.69,216.15z"/>
	<path class="st2" d="M349.52,443.83c-0.38-2.27,0.67-4.25,1.33-6.28c5.45-16.78,10.81-33.59,16.53-50.27
		c1.41-4.12,0.39-6.23-2.98-8.62c-14.66-10.41-29.14-21.07-43.67-31.66c-1.43-1.04-2.78-2.18-5.21-4.09c5.82,0,10.4,0,14.97,0
		c15.16,0,30.32-0.19,45.47,0.11c4.51,0.09,6.31-1.46,7.61-5.65c5.86-18.89,12.08-37.67,18.62-57.9c2.97,8.97,5.54,16.63,8.05,24.31
		c3.82,11.71,7.69,23.4,11.33,35.16c0.95,3.08,2.5,4.06,5.69,4.04c18.49-0.15,36.97-0.08,55.46-0.05c1.59,0,3.27-0.45,5.46,0.76
		c-5.58,4.1-10.84,7.99-16.14,11.85c-11.04,8.04-22.02,16.15-33.18,24c-2.71,1.91-3.07,3.66-2.08,6.62
		c5.79,17.37,11.41,34.79,17.07,52.19c0.54,1.67,1,3.36,0.6,5.65c-4.7-3.34-9.43-6.64-14.1-10.03
		c-11.45-8.31-22.95-16.56-34.26-25.06c-2.95-2.22-5.01-2.01-7.87,0.11c-14.85,10.99-29.85,21.79-44.8,32.65
		c-1.2,0.87-2.2,2.08-3.83,2.21L349.52,443.83z"/>
	<path class="st3" d="M559.61,423.92c-6.61,8.05-13.3,15.6-22.81,20.93c-7.73,4.32-15.04,9.71-22.8,14.18
		c-15.17,8.73-31.46,15.04-47.61,21.63c-12.77,5.21-25.6,10.33-37.16,18.05c-1.24,0.83-2.71,1.53-3.58,2.67
		c-5.16,6.8-12.36,6.97-19.84,6.36c-2.59-0.21-4.91-1.26-6.71-3.02c-9.32-9.05-21.09-13.73-32.79-18.51
		c-25.38-10.37-50.77-20.58-74.55-34.55c-21.17-12.43-37.94-28.74-49.97-50.04c-0.48-0.85-0.73-1.83-1.09-2.74
		c0.88,0.42,1.95,0.65,2.61,1.3c5.89,5.8,10.02,13.12,16.25,18.65c7.02,6.24,13.01,13.6,20.82,18.99c4.04,2.79,8.76,4.73,12.46,7.57
		c7.32,5.61,15.02,10.23,23.53,13.41c4.07,1.52,7.94,3.11,11.54,5.56c2.87,1.95,6.04,3.47,9.16,5.01c1.32,0.65,3.09,1.08,3.98-0.59
		c0.82-1.55-0.58-2.41-1.77-3.03c-1.56-0.81-2.87-1.71-2.71-3.73c20.08,8.64,40.95,15.47,60.07,26.32c4.22,2.4,8.04,5.28,11.55,8.57
		c1.26,1.18,2.03,1.83,3.62,0.38c13.85-12.55,31.25-18.5,48.03-25.58c18.81-7.93,37.22-16.61,55.38-26.03
		c13.25-6.87,23.68-16.46,33.94-26.68c0.32,1.8,0.29,3.57-0.33,5.32c-0.33,0.92-0.58,2.07,0.33,2.72c0.99,0.7,1.79-0.31,2.61-0.77
		C554.22,424.93,556.64,423.52,559.61,423.92z"/>
	<path class="st4" d="M559.61,423.92c-2.97-0.4-5.39,1-7.82,2.39c-0.82,0.47-1.62,1.48-2.61,0.77c-0.91-0.65-0.66-1.8-0.33-2.72
		c0.62-1.76,0.64-3.52,0.33-5.32c8.47-10.21,15.68-21.3,21.04-33.39c6.78-15.3,10.22-31.49,11.32-48.23
		c2.35-35.54-4.53-69.77-14.38-103.59c-2.59-8.91-5.48-17.73-8.23-26.6c-0.34-1.1-0.89-2.18-0.35-3.37l-0.07,0.09
		c5.68,3.68,12.46,5.9,16.18,12.19c-0.27,2.65-0.6,5.3,0.28,7.91c3.17,9.44,5.13,19.16,7.05,28.91c2.29,11.65,5.63,23.08,6.76,34.98
		c2.1,22.04,2.6,44.01,0.06,66.09c-1.89,16.51-6.48,32.11-13.62,46.94C571.2,409.33,566.53,417.45,559.61,423.92z"/>
	<path class="st4" d="M227.6,354.91c-2.79-8.51-1.46-17.41-2.53-26.08c-1.52-12.29,1.54-24.33,1.82-36.53
		c0.31-13.75,2.1-27.42,5.36-40.86c2.61-10.76,3.34-22.02,8.94-31.96c0.18-0.31-0.47-1.09-0.73-1.65c4.87-2.89,4.87-2.89,5.07-5.07
		l0.01,0.12c1.22,1.81,2.26,0.29,3.2-0.28c0.8-0.49,0.9-1.26-0.22-1.69l-0.09-0.03c0.95,2.61,2.35-0.71,3.65,0.47
		c-2.58,9.99-5.21,20.13-7.81,30.28c-8.94,35.05-14.07,70.41-8.86,106.64c1.26,8.75,3.81,17.18,6.16,25.66
		c-1.56,0.3-1.54,1.24-1.32,2.59c0.27,1.64,1.37,4.31-0.94,4.6c-2.33,0.29-2.39-2.5-2.83-4.46c-1.09-4.83-2.3-9.63-3.66-14.39
		C231.97,359.24,230.93,356.22,227.6,354.91z"/>
	<path class="st4" d="M336.57,462.04c-0.16,2.02,1.15,2.93,2.71,3.73c1.19,0.62,2.59,1.48,1.77,3.03c-0.88,1.67-2.65,1.24-3.98,0.59
		c-3.12-1.54-6.3-3.06-9.16-5.01c-3.6-2.45-7.47-4.04-11.54-5.56c-8.51-3.18-16.22-7.79-23.53-13.41c-3.7-2.84-8.42-4.78-12.46-7.57
		c-7.82-5.4-13.8-12.75-20.82-18.99c-6.22-5.53-10.36-12.85-16.25-18.65c-0.66-0.65-1.73-0.88-2.61-1.3
		c-0.4-0.97-0.81-1.95-1.21-2.93c1.63-1.6,0.94-3.67,1.13-5.56c0.14-1.39-0.58-3.19,1.07-3.97c1.71-0.81,2.68,0.71,3.53,1.85
		c0.87,1.18,1.95,1.65,3.35,1.61c7.13,13.24,15.6,25.7,26.7,35.73c8.19,7.4,16.82,14.37,27.23,19.34
		C313.93,450.41,325.22,456.32,336.57,462.04z"/>
	<path class="st3" d="M248.57,389.89c-1.39,0.04-2.48-0.43-3.35-1.61c-0.85-1.15-1.82-2.66-3.53-1.85
		c-1.65,0.78-0.93,2.58-1.07,3.97c-0.19,1.89,0.5,3.96-1.13,5.56c-6.32-13-11.02-26.47-11.88-41.05c3.32,1.32,4.37,4.34,5.23,7.34
		c1.36,4.76,2.57,9.56,3.66,14.39c0.44,1.96,0.5,4.74,2.83,4.46c2.31-0.28,1.21-2.96,0.94-4.6c-0.22-1.35-0.24-2.29,1.32-2.59
		C243.91,379.24,246.24,384.56,248.57,389.89z"/>
	<path class="st4" d="M558.58,203.87c-0.15,0-0.3,0-0.45,0c0.13,0.03,0.25,0.07,0.38,0.1L558.58,203.87z"/>
	<path class="st2" d="M349.59,443.9c-0.15,0.12-0.31,0.24-0.46,0.36c0.13-0.14,0.26-0.28,0.39-0.42L349.59,443.9z"/>
	<path class="st0" d="M248.52,210.9c1.11,0.43,1.02,1.21,0.22,1.69c-0.95,0.57-1.98,2.09-3.2,0.28
		C246.2,211.72,247.29,211.2,248.52,210.9z"/>
	<path class="st0" d="M220.05,408.99c-2.19,0.92-4.38,1.85-6.58,2.77c-0.56-1.34-1.1-2.69-1.63-4.05
		c6.27-2.48,12.54-4.96,18.81-7.45c0.92,2.31,1.88,4.6,2.87,6.84c0.57,1.3,0.83,2.54,0.77,3.75c-0.05,1.21-0.42,2.3-1.09,3.27
		c-0.67,0.97-1.6,1.75-2.77,2.33c-1.79,0.88-3.48,0.98-5.08,0.27c-1.6-0.71-2.9-2.17-3.86-4.37
		C221.01,411.25,220.53,410.12,220.05,408.99z M223.17,407.68c0.47,1.13,0.95,2.26,1.44,3.38c0.43,0.99,1.01,1.64,1.71,1.94
		c0.7,0.3,1.49,0.24,2.37-0.17c0.9-0.42,1.51-1.01,1.84-1.77c0.33-0.76,0.3-1.59-0.07-2.49c-0.49-1.11-0.97-2.22-1.44-3.35
		C227.07,406.04,225.12,406.86,223.17,407.68z"/>
	<path class="st0" d="M229.6,428.42c-0.51-0.94-1.01-1.89-1.51-2.85c-2.19,1.17-4.38,2.35-6.56,3.52c-0.65-1.25-1.28-2.51-1.91-3.77
		c6.04-3.08,12.07-6.15,18.11-9.23c1.02,2.05,2.08,4.08,3.16,6.07c1.03,1.9,1.38,3.61,1.05,5.17c-0.34,1.56-1.33,2.86-3.01,3.88
		c-1.19,0.72-2.32,1.09-3.4,1.08c-1.08-0.01-2.14-0.38-3.19-1.11c-1.71,2.62-3.39,5.27-5.03,7.97l-0.17,0.1
		c-0.75-1.28-1.49-2.57-2.22-3.87C226.45,433.03,228.01,430.71,229.6,428.42z M231.08,423.96c0.5,0.95,1,1.9,1.5,2.84
		c0.47,0.88,1.08,1.42,1.81,1.63c0.73,0.21,1.5,0.07,2.32-0.4c0.83-0.48,1.36-1.08,1.6-1.79c0.23-0.71,0.1-1.51-0.39-2.42
		c-0.49-0.9-0.97-1.82-1.45-2.73C234.67,422.04,232.88,423,231.08,423.96z"/>
	<path class="st0" d="M245.24,449.24c-1.62,1.21-3.23,2-4.84,2.36c-1.61,0.36-3.11,0.26-4.5-0.3c-1.39-0.56-2.55-1.55-3.46-2.94
		c-0.9-1.37-1.35-2.84-1.35-4.38c0-1.54,0.46-3.01,1.37-4.42c0.91-1.41,2.21-2.62,3.87-3.67c0.29-0.18,0.57-0.36,0.86-0.54
		c1.7-1.07,3.38-1.72,5.01-1.98c1.63-0.26,3.1-0.12,4.41,0.42c1.31,0.54,2.36,1.42,3.18,2.66c0.82,1.24,1.22,2.55,1.2,3.98
		c-0.01,1.43-0.45,2.85-1.31,4.29c-0.86,1.43-2.09,2.76-3.71,3.96C245.73,448.88,245.49,449.06,245.24,449.24z M243.76,445.51
		c1.75-1.25,2.88-2.49,3.41-3.7c0.53-1.21,0.44-2.33-0.25-3.38c-0.69-1.05-1.67-1.55-2.96-1.53c-1.29,0.03-2.83,0.61-4.61,1.76
		c-0.28,0.18-0.56,0.36-0.83,0.55c-1.75,1.14-2.91,2.33-3.48,3.58c-0.57,1.25-0.48,2.46,0.27,3.61c0.74,1.13,1.77,1.67,3.08,1.61
		c1.31-0.05,2.83-0.7,4.57-1.94C243.22,445.89,243.49,445.7,243.76,445.51z"/>
	<path class="st0" d="M252.79,461.34c-1.55-1.87-3.08-3.78-4.57-5.73c-2.19,1.75-4.37,3.5-6.56,5.26c-0.81-1.06-1.61-2.13-2.41-3.2
		c5.42-4.18,10.85-8.36,16.27-12.53c2.27,3.06,4.62,6.02,7.03,8.89c-0.86,0.75-1.73,1.51-2.59,2.26c-1.68-2-3.33-4.05-4.94-6.13
		c-1.38,1.11-2.76,2.21-4.14,3.32c1.47,1.91,2.97,3.79,4.5,5.62C254.51,459.85,253.65,460.6,252.79,461.34z"/>
	<path class="st0" d="M262.69,471.67c-1.65-1.72-3.28-3.48-4.89-5.28c-1.35,1.26-2.7,2.51-4.05,3.77c1.93,2.17,3.9,4.29,5.9,6.35
		c-0.8,0.81-1.61,1.62-2.41,2.44c-2.94-3.03-5.81-6.18-8.59-9.43c5.13-4.58,10.25-9.17,15.38-13.75c2.51,2.91,5.09,5.72,7.75,8.44
		c-0.81,0.82-1.62,1.64-2.43,2.46c-1.87-1.91-3.7-3.88-5.5-5.89c-1.2,1.12-2.4,2.23-3.61,3.35c1.58,1.76,3.18,3.49,4.81,5.19
		C264.26,470.1,263.48,470.88,262.69,471.67z"/>
	<path class="st0" d="M269.64,483.39c0.53-0.61,0.76-1.24,0.68-1.9c-0.08-0.66-0.43-1.6-1.04-2.84c-0.61-1.24-1.02-2.29-1.24-3.15
		c-0.59-2.35-0.1-4.29,1.4-5.84c0.78-0.8,1.66-1.33,2.64-1.6c0.98-0.26,1.98-0.24,3.01,0.08c1.03,0.31,1.98,0.88,2.85,1.69
		c0.88,0.82,1.49,1.74,1.84,2.78c0.35,1.04,0.4,2.1,0.16,3.19c-0.24,1.09-0.76,2.12-1.56,3.07c-0.9-0.78-1.79-1.58-2.67-2.38
		c0.63-0.72,0.93-1.44,0.91-2.17c-0.02-0.73-0.35-1.4-1.01-2.01c-0.63-0.59-1.27-0.89-1.91-0.9c-0.65-0.01-1.22,0.25-1.71,0.78
		c-0.46,0.49-0.64,1.11-0.53,1.84c0.11,0.73,0.43,1.63,0.99,2.7c1.02,1.95,1.55,3.65,1.56,5.11c0.01,1.46-0.5,2.81-1.55,4.04
		c-1.16,1.37-2.52,2.06-4.1,2.02c-1.57-0.04-3.13-0.76-4.65-2.19c-1.05-0.99-1.81-2.12-2.25-3.38c-0.45-1.26-0.54-2.47-0.27-3.64
		c0.27-1.17,0.87-2.23,1.81-3.19c0.89,0.9,1.78,1.78,2.68,2.66c-1.57,1.67-1.48,3.36,0.3,5.04c0.66,0.62,1.32,0.94,1.96,0.98
		C268.58,484.22,269.15,483.95,269.64,483.39z"/>
	<path class="st0" d="M281.79,493.62c0.49-0.65,0.66-1.3,0.54-1.95c-0.13-0.65-0.54-1.56-1.24-2.73c-0.69-1.17-1.17-2.18-1.45-3.02
		c-0.75-2.28-0.4-4.25,0.97-5.92c0.71-0.87,1.55-1.47,2.5-1.82c0.95-0.35,1.95-0.41,3-0.19c1.05,0.22,2.03,0.7,2.95,1.43
		c0.93,0.74,1.6,1.6,2.02,2.6c0.42,1,0.55,2.05,0.39,3.16c-0.16,1.11-0.6,2.17-1.33,3.19c-0.95-0.7-1.89-1.41-2.82-2.14
		c0.57-0.76,0.82-1.51,0.75-2.23c-0.07-0.72-0.45-1.36-1.14-1.91c-0.67-0.53-1.32-0.77-1.96-0.73c-0.64,0.05-1.19,0.35-1.64,0.92
		c-0.42,0.53-0.56,1.15-0.4,1.87c0.16,0.72,0.54,1.58,1.17,2.59c1.15,1.85,1.8,3.49,1.91,4.94c0.11,1.45-0.3,2.84-1.25,4.15
		c-1.05,1.47-2.36,2.27-3.92,2.37c-1.56,0.1-3.17-0.49-4.77-1.77c-1.12-0.89-1.94-1.95-2.48-3.15c-0.53-1.21-0.71-2.41-0.52-3.59
		c0.18-1.18,0.71-2.29,1.57-3.32c0.94,0.81,1.89,1.61,2.85,2.4c-1.44,1.79-1.23,3.47,0.65,4.98c0.7,0.56,1.37,0.82,2.02,0.8
		C280.8,494.53,281.35,494.22,281.79,493.62z"/>
	<path class="st0" d="M287.1,504.31c-1.04-0.72-2.07-1.45-3.09-2.19c3.98-5.71,7.97-11.42,11.95-17.13
		c0.92,0.66,1.85,1.32,2.79,1.96C294.86,492.74,290.98,498.52,287.1,504.31z"/>
	<path class="st0" d="M307.77,505.51c-0.99,1.81-2.13,3.25-3.42,4.31c-1.29,1.05-2.66,1.65-4.09,1.79c-1.43,0.14-2.81-0.2-4.11-1.01
		c-1.29-0.8-2.22-1.88-2.77-3.24c-0.55-1.35-0.68-2.86-0.37-4.52c0.3-1.66,1.01-3.33,2.1-5.02c0.19-0.29,0.38-0.58,0.56-0.87
		c1.12-1.73,2.36-3.08,3.71-4.06c1.35-0.99,2.69-1.54,4.04-1.68c1.35-0.13,2.59,0.16,3.76,0.87c1.17,0.72,1.99,1.7,2.5,2.97
		c0.5,1.27,0.64,2.74,0.39,4.41c-0.24,1.67-0.85,3.41-1.84,5.22C308.07,504.96,307.92,505.24,307.77,505.51z M305.1,502.87
		c1.09-1.91,1.64-3.52,1.67-4.84c0.03-1.31-0.45-2.27-1.44-2.88c-0.98-0.61-2.03-0.6-3.16,0.02c-1.13,0.62-2.27,1.84-3.43,3.69
		c-0.18,0.29-0.36,0.58-0.54,0.87c-1.13,1.81-1.73,3.4-1.79,4.77c-0.05,1.36,0.46,2.39,1.54,3.06c1.06,0.65,2.17,0.66,3.3,0.01
		c1.14-0.65,2.24-1.92,3.33-3.81C304.76,503.46,304.93,503.17,305.1,502.87z"/>
	<path class="st0" d="M318.71,522.39c-1.13-0.52-2.26-1.05-3.38-1.59c-0.24-5.24-0.32-10.45-0.25-15.62
		c-2.08,4.11-4.17,8.23-6.26,12.34c-1.1-0.58-2.2-1.17-3.3-1.77c3.28-6.19,6.56-12.38,9.83-18.57c0.99,0.54,1.98,1.07,2.97,1.59
		c-0.15,5.14-0.14,10.31,0.02,15.53c1.95-4.2,3.9-8.4,5.84-12.6c1.01,0.48,2.02,0.95,3.03,1.42
		C324.4,509.53,321.56,515.96,318.71,522.39z"/>
	<path class="st0" d="M335.53,529.26c-1.17-0.42-2.33-0.85-3.49-1.29c-0.68-5.22-1.19-10.41-1.55-15.58
		c-1.73,4.3-3.45,8.59-5.18,12.89c-1.14-0.48-2.29-0.97-3.42-1.47c2.74-6.48,5.47-12.95,8.21-19.43c1.02,0.45,2.05,0.88,3.08,1.31
		c0.28,5.14,0.72,10.31,1.32,15.51c1.58-4.37,3.17-8.74,4.75-13.11c1.04,0.39,2.08,0.77,3.13,1.14
		C340.1,515.92,337.81,522.59,335.53,529.26z"/>
	<path class="st0" d="M351.53,524.76c-2.18-0.62-4.36-1.28-6.52-1.97c-0.55,1.81-1.1,3.62-1.65,5.43c2.61,0.84,5.23,1.63,7.87,2.36
		c-0.3,1.13-0.59,2.27-0.89,3.4c-3.87-1.08-7.72-2.27-11.53-3.57c2.18-6.72,4.35-13.43,6.53-20.15c3.42,1.16,6.88,2.21,10.35,3.17
		c-0.3,1.14-0.6,2.29-0.9,3.43c-2.45-0.68-4.89-1.4-7.32-2.18c-0.49,1.61-0.98,3.22-1.47,4.83c2.13,0.68,4.26,1.32,6.41,1.93
		C352.12,522.56,351.82,523.66,351.53,524.76z"/>
	<path class="st0" d="M357.03,532.11c2.5,0.62,5.01,1.2,7.54,1.73c-0.22,1.15-0.44,2.31-0.66,3.46c-3.77-0.79-7.52-1.69-11.25-2.69
		c1.71-6.87,3.43-13.74,5.14-20.61c1.07,0.28,2.15,0.56,3.23,0.82C359.69,520.59,358.36,526.35,357.03,532.11z"/>
	<path class="st0" d="M382.41,534.72c0.09-0.83-0.09-1.49-0.51-2c-0.42-0.5-1.22-1.08-2.38-1.74c-1.16-0.66-2.05-1.29-2.69-1.87
		c-1.74-1.59-2.42-3.5-2.09-5.69c0.17-1.14,0.57-2.11,1.19-2.93c0.62-0.81,1.42-1.4,2.4-1.77c0.98-0.37,2.03-0.47,3.16-0.32
		c1.14,0.15,2.12,0.56,2.97,1.21c0.84,0.66,1.47,1.51,1.88,2.57c0.41,1.06,0.57,2.23,0.46,3.51c-1.14-0.12-2.28-0.25-3.41-0.39
		c0.1-0.97-0.06-1.76-0.47-2.36c-0.41-0.6-1.04-0.95-1.89-1.07c-0.82-0.11-1.48,0.02-1.99,0.41c-0.51,0.38-0.82,0.94-0.92,1.68
		c-0.09,0.69,0.1,1.31,0.59,1.85c0.48,0.54,1.23,1.1,2.25,1.65c1.87,1.01,3.22,2.11,4.03,3.32c0.81,1.21,1.15,2.65,1.01,4.31
		c-0.16,1.85-0.86,3.23-2.12,4.15c-1.26,0.91-2.89,1.25-4.86,0.98c-1.37-0.19-2.58-0.67-3.62-1.44c-1.04-0.77-1.77-1.72-2.19-2.86
		c-0.43-1.13-0.53-2.38-0.32-3.74c1.18,0.2,2.36,0.39,3.55,0.57c-0.32,2.33,0.68,3.69,2.99,4.01c0.86,0.12,1.55-0.01,2.08-0.37
		C382.03,536.04,382.33,535.48,382.41,534.72z"/>
	<path class="st0" d="M399.2,532.45c-2.26-0.1-4.52-0.24-6.77-0.41c-0.11,1.91-0.21,3.82-0.32,5.73c2.72,0.21,5.45,0.37,8.18,0.48
		c-0.02,1.18-0.04,2.37-0.06,3.55c-4.01-0.16-8.01-0.43-12-0.81c0.52-7.12,1.04-14.24,1.56-21.36c3.58,0.33,7.17,0.56,10.76,0.69
		c-0.02,1.2-0.04,2.39-0.06,3.58c-2.53-0.09-5.06-0.24-7.59-0.43c-0.09,1.7-0.19,3.4-0.28,5.1c2.22,0.17,4.44,0.3,6.66,0.4
		C399.25,530.14,399.23,531.3,399.2,532.45z M396.24,514.32c1.13,0.07,2.25,0.12,3.38,0.17c-1.02,1.48-2.07,2.96-3.14,4.42
		c-0.86-0.05-1.72-0.1-2.58-0.17C394.69,517.28,395.48,515.8,396.24,514.32z"/>
	<path class="st0" d="M416.26,534.67c0.01,2.32-0.58,4.17-1.78,5.54c-1.21,1.36-2.88,2.06-4.99,2.07c-2.3,0.01-4.13-0.95-5.44-2.84
		c-1.31-1.88-1.92-4.45-1.9-7.69c0-0.44,0.01-0.88,0.01-1.31c0.02-2.07,0.32-3.88,0.88-5.44c0.56-1.56,1.35-2.75,2.36-3.58
		c1.01-0.83,2.18-1.24,3.52-1.25c1.86-0.01,3.37,0.62,4.59,1.92c1.21,1.3,2,3.14,2.33,5.54c-1.15,0.04-2.3,0.08-3.45,0.1
		c-0.15-1.39-0.49-2.39-1.02-3.01c-0.53-0.62-1.32-0.92-2.35-0.91c-1.13,0.01-1.96,0.53-2.51,1.59c-0.55,1.05-0.83,2.69-0.82,4.92
		c0.01,0.54,0.01,1.08,0.02,1.63c0.02,2.32,0.32,4.03,0.91,5.11c0.59,1.08,1.51,1.62,2.76,1.62c1.12,0,1.95-0.33,2.48-0.96
		c0.53-0.63,0.8-1.61,0.82-2.92C413.88,534.75,415.07,534.72,416.26,534.67z"/>
	<path class="st0" d="M429.92,519.22c0.65,4.71,1.3,9.42,1.96,14.13c0.33,2.35-0.01,4.27-1.05,5.76c-1.03,1.49-2.63,2.33-4.76,2.5
		c-2.09,0.16-3.82-0.4-5.15-1.66c-1.33-1.26-2.08-3.07-2.27-5.39c-0.35-4.78-0.7-9.56-1.05-14.34c1.11-0.06,2.21-0.12,3.32-0.19
		c0.43,4.73,0.86,9.47,1.29,14.2c0.13,1.41,0.49,2.42,1.1,3.03c0.61,0.61,1.41,0.88,2.38,0.8c2.04-0.16,2.92-1.57,2.63-4.19
		c-0.58-4.77-1.15-9.53-1.73-14.3C427.71,519.46,428.82,519.34,429.92,519.22z"/>
	<path class="st0" d="M441.26,531.55c-0.93,0.15-1.87,0.29-2.81,0.42c0.45,2.61,0.9,5.22,1.35,7.83c-1.22,0.17-2.44,0.34-3.67,0.49
		c-1.1-7.14-2.2-14.29-3.3-21.43c1.98-0.25,3.96-0.54,5.93-0.85c1.88-0.3,3.44,0.01,4.7,0.94c1.26,0.93,2.13,2.41,2.58,4.46
		c0.32,1.45,0.34,2.71,0.05,3.77c-0.29,1.06-0.88,1.97-1.78,2.72c1.81,2.69,3.67,5.36,5.59,8.01l0.05,0.2
		c-1.3,0.25-2.6,0.48-3.91,0.71C444.4,536.42,442.81,533.99,441.26,531.55z M437.84,528.41c0.93-0.13,1.86-0.27,2.79-0.42
		c0.87-0.14,1.49-0.53,1.85-1.17c0.36-0.64,0.44-1.46,0.24-2.44c-0.2-1-0.58-1.76-1.13-2.26c-0.55-0.5-1.27-0.68-2.17-0.54
		c-0.9,0.14-1.79,0.28-2.69,0.41C437.1,524.13,437.47,526.27,437.84,528.41z"/>
	<path class="st0" d="M456.12,536.85c-1.21,0.27-2.41,0.52-3.62,0.77c-1.66-7.07-3.32-14.13-4.98-21.2c1.09-0.22,2.17-0.46,3.25-0.7
		C452.56,522.76,454.34,529.8,456.12,536.85z"/>
	<path class="st0" d="M466.57,515.29c-1.61,0.49-3.22,0.97-4.85,1.42c1.8,5.8,3.6,11.6,5.4,17.4c-1.19,0.33-2.39,0.65-3.58,0.96
		c-1.7-5.82-3.39-11.65-5.09-17.47c-1.61,0.42-3.22,0.82-4.83,1.2c-0.31-1.17-0.62-2.35-0.93-3.52c4.27-1,8.51-2.15,12.71-3.45
		C465.79,512.98,466.18,514.14,466.57,515.29z"/>
	<path class="st0" d="M481.32,519.52c-2.13,0.8-4.27,1.56-6.43,2.29c0.68,1.84,1.36,3.67,2.04,5.51c2.6-0.88,5.19-1.8,7.76-2.78
		c0.47,1.12,0.93,2.24,1.4,3.36c-3.77,1.44-7.58,2.76-11.42,3.98c-2.42-6.89-4.84-13.79-7.25-20.68c3.44-1.1,6.85-2.3,10.22-3.6
		c0.47,1.13,0.94,2.26,1.41,3.39c-2.38,0.91-4.78,1.78-7.19,2.6c0.61,1.63,1.21,3.27,1.82,4.9c2.12-0.72,4.22-1.47,6.32-2.25
		C480.43,517.33,480.87,518.42,481.32,519.52z M471.2,503.66c1.07-0.38,2.13-0.77,3.19-1.18c-0.34,1.8-0.71,3.59-1.11,5.39
		c-0.82,0.29-1.63,0.58-2.45,0.86C470.97,507.05,471.09,505.35,471.2,503.66z"/>
	<path class="st0" d="M491.25,519.43c-0.43-0.93-0.61-1.87-0.56-2.84c0.05-0.96,0.39-2.16,1.02-3.6c-0.85-0.58-1.56-1.17-2.15-1.75
		c-0.59-0.58-1.07-1.25-1.42-2.01c-0.73-1.55-0.95-2.98-0.67-4.28c0.27-1.3,1.02-2.23,2.24-2.8c1.1-0.51,2.22-0.51,3.37,0.02
		c1.16,0.53,2.08,1.43,2.76,2.73c0.82,1.56,0.94,3.24,0.31,5.03c-0.21,0.55-0.42,1.11-0.63,1.66c1.56,0.9,3.13,1.78,4.72,2.65
		c-0.12-1.25-0.51-2.5-1.17-3.75c0.87-0.43,1.74-0.87,2.61-1.31c1.38,2.53,2.03,4.81,1.91,6.86c1.4,0.73,2.81,1.45,4.24,2.15
		c-1.21,0.63-2.43,1.24-3.66,1.84c-0.48-0.25-0.96-0.5-1.44-0.75c-0.7,1.53-1.85,2.68-3.43,3.4c-1.63,0.75-3.2,0.81-4.67,0.2
		C493.15,522.29,492.03,521.13,491.25,519.43z M497.87,519.45c0.77-0.36,1.37-0.96,1.79-1.81c-1.82-0.99-3.61-2-5.39-3.03
		c-0.04,0.1-0.09,0.21-0.13,0.31c-0.31,0.98-0.24,1.94,0.21,2.87c0.38,0.79,0.89,1.34,1.55,1.65
		C496.55,519.76,497.21,519.76,497.87,519.45z M490.82,507.95c0.33,0.68,1.06,1.4,2.19,2.15c0.16-0.36,0.31-0.71,0.47-1.07
		c0.24-0.54,0.36-1.01,0.35-1.41c-0.01-0.4-0.13-0.82-0.36-1.27c-0.23-0.45-0.56-0.78-0.98-1c-0.42-0.21-0.83-0.23-1.23-0.04
		c-0.43,0.2-0.68,0.54-0.76,1.02C490.42,506.81,490.52,507.35,490.82,507.95z"/>
	<path class="st0" d="M519.52,500.31c-1.94,1.26-3.9,2.47-5.88,3.66c1.06,1.68,2.11,3.36,3.17,5.03c2.39-1.43,4.75-2.9,7.09-4.43
		c0.69,1.01,1.39,2.02,2.08,3.04c-3.43,2.24-6.92,4.38-10.46,6.4c-3.83-6.33-7.66-12.65-11.49-18.98c3.16-1.82,6.28-3.74,9.35-5.76
		c0.7,1.02,1.4,2.04,2.1,3.06c-2.16,1.42-4.35,2.8-6.57,4.13c0.94,1.49,1.88,2.99,2.82,4.48c1.94-1.16,3.87-2.36,5.77-3.6
		C518.18,498.33,518.85,499.32,519.52,500.31z"/>
	<path class="st0" d="M540.18,497.44c-1,0.78-2.01,1.56-3.03,2.32c-4.99-2.37-9.87-4.87-14.63-7.5c2.88,3.95,5.76,7.9,8.64,11.85
		c-1.04,0.72-2.08,1.44-3.13,2.14c-4.27-6.07-8.53-12.15-12.8-18.22c0.94-0.63,1.87-1.28,2.8-1.93c4.7,2.68,9.51,5.24,14.44,7.67
		c-3.02-3.86-6.05-7.73-9.07-11.59c0.9-0.69,1.8-1.38,2.7-2.09C530.79,485.87,535.49,491.65,540.18,497.44z"/>
	<path class="st0" d="M540.43,472.7c-1.28,1.2-2.58,2.38-3.88,3.53c4.17,4.62,8.34,9.23,12.51,13.85c-0.96,0.85-1.94,1.68-2.91,2.51
		c-4.08-4.69-8.17-9.37-12.25-14.06c-1.31,1.11-2.63,2.2-3.96,3.28c-0.79-0.96-1.59-1.92-2.38-2.88c3.52-2.84,6.96-5.82,10.3-8.95
		C538.71,470.89,539.57,471.79,540.43,472.7z"/>
	<path class="st0" d="M554.15,473.94c-0.7,0.71-1.4,1.42-2.11,2.12c1.95,1.93,3.89,3.86,5.84,5.79c-0.92,0.91-1.85,1.81-2.79,2.71
		c-5.22-5.36-10.44-10.72-15.65-16.08c1.51-1.45,3-2.93,4.47-4.43c1.4-1.44,2.89-2.17,4.51-2.18c1.62-0.01,3.24,0.69,4.85,2.14
		c1.14,1.03,1.91,2.08,2.31,3.16c0.4,1.08,0.45,2.23,0.14,3.44c3.14,1.13,6.32,2.22,9.52,3.25l0.16,0.14
		c-0.95,1.04-1.9,2.07-2.87,3.09C559.72,476.08,556.92,475.03,554.15,473.94z M549.38,473.42c0.7-0.7,1.4-1.4,2.09-2.11
		c0.65-0.66,0.93-1.39,0.85-2.16c-0.08-0.77-0.5-1.51-1.26-2.22c-0.77-0.72-1.55-1.12-2.31-1.2c-0.76-0.08-1.48,0.23-2.15,0.91
		c-0.67,0.68-1.34,1.36-2.01,2.03C546.19,470.26,547.79,471.84,549.38,473.42z"/>
	<path class="st0" d="M566.85,457.21c-1.51,1.92-3.05,3.8-4.62,5.64c1.54,1.3,3.07,2.6,4.61,3.9c1.9-2.23,3.76-4.5,5.57-6.83
		c0.98,0.76,1.97,1.53,2.95,2.29c-2.67,3.42-5.43,6.73-8.27,9.93c-5.64-4.95-11.29-9.89-16.93-14.84c2.53-2.87,4.99-5.84,7.36-8.91
		c0.99,0.77,1.98,1.54,2.97,2.31c-1.68,2.16-3.4,4.28-5.15,6.35c1.37,1.16,2.73,2.31,4.1,3.47c1.54-1.81,3.05-3.66,4.54-5.55
		C564.94,455.7,565.89,456.46,566.85,457.21z"/>
	<path class="st0" d="M569.86,437.51c-1.01,1.55-2.04,3.09-3.08,4.6c5.16,3.58,10.31,7.17,15.47,10.75
		c-0.77,1.11-1.55,2.21-2.34,3.3c-5.09-3.68-10.17-7.35-15.26-11.03c-1.05,1.46-2.13,2.91-3.21,4.33c-1-0.76-2-1.53-2.99-2.29
		c2.87-3.77,5.63-7.68,8.26-11.74C567.76,436.13,568.81,436.82,569.86,437.51z"/>
	<path class="st0" d="M589.36,441.94c-0.72,1.18-1.44,2.34-2.18,3.5c-6.37-4.05-12.74-8.11-19.1-12.16c0.65-1.04,1.3-2.09,1.94-3.15
		C576.47,434.07,582.91,438.01,589.36,441.94z"/>
	<path class="st0" d="M588.57,423.18c-1.18,2.31-2.38,4.58-3.63,6.82c1.77,0.99,3.54,1.98,5.3,2.97c1.5-2.7,2.96-5.45,4.37-8.25
		c1.12,0.56,2.24,1.13,3.36,1.69c-2.07,4.12-4.25,8.12-6.52,12.02c-6.52-3.82-13.05-7.63-19.57-11.45c2.02-3.5,3.95-7.09,5.79-10.78
		c1.13,0.57,2.26,1.14,3.39,1.71c-1.3,2.6-2.64,5.16-4.03,7.66c1.57,0.88,3.15,1.76,4.72,2.64c1.22-2.2,2.41-4.43,3.56-6.7
		C586.4,422.06,587.48,422.62,588.57,423.18z"/>
	<path class="st0" d="M606.11,408.31c-0.54,1.36-1.1,2.71-1.66,4.05c-5.71,0.68-11.37,1.14-16.99,1.4c4.53,2.1,9.05,4.21,13.58,6.31
		c-0.6,1.3-1.22,2.59-1.84,3.87c-6.81-3.33-13.62-6.66-20.43-9.98c0.55-1.15,1.1-2.31,1.64-3.47c5.58-0.17,11.21-0.54,16.89-1.13
		c-4.62-1.94-9.24-3.87-13.86-5.81c0.5-1.2,0.99-2.41,1.47-3.63C591.98,402.71,599.04,405.51,606.11,408.31z"/>
	<path class="st1" d="M287.54,186.14h12.71c3.82,0.08,6.78,1.8,8.86,5.18c2.08,3.38,3.12,7.92,3.12,13.62
		c0,5.74-1.04,10.21-3.14,13.42c-2.09,3.21-5.13,4.81-9.11,4.81h-12.44V186.14z M299.89,229.05c5.34,0,9.41-2.1,12.23-6.3
		c2.81-4.2,4.22-10.17,4.22-17.89c0-7.65-1.46-13.66-4.39-18.04c-2.92-4.37-6.91-6.56-11.96-6.56h-16.54v82.32h4.1v-33.53H299.89z"
		/>
	<path class="st1" d="M330.09,186.14h11.58c3.94,0,6.99,1.61,9.17,4.81s3.27,7.72,3.27,13.53c0,5.29-1.05,9.59-3.14,12.91
		c-2.09,3.32-4.86,4.98-8.31,4.98h-12.58V186.14z M355.94,262.58h4.37v-0.74l-12.14-35.05c3.07-1.54,5.51-4.33,7.34-8.36
		s2.74-8.68,2.74-13.95c0-7.64-1.46-13.59-4.37-17.85c-2.91-4.25-6.96-6.38-12.14-6.38h-15.78v82.32h4.14v-34.32h14.11
		L355.94,262.58z"/>
	<path class="st1" d="M401.82,225.66c0,10.06-1.3,17.91-3.9,23.55c-2.6,5.64-6.23,8.45-10.87,8.45c-4.58,0-8.21-2.86-10.88-8.57
		s-4-13.45-4-23.21v-8.59c0-10.1,1.34-17.97,4.02-23.61c2.68-5.63,6.28-8.45,10.79-8.45c4.6,0,8.23,2.81,10.88,8.42
		c2.65,5.62,3.97,13.38,3.97,23.29V225.66z M405.92,216.05c-0.07-7.35-0.88-13.81-2.44-19.39c-1.56-5.58-3.76-9.89-6.62-12.95
		s-6.15-4.58-9.89-4.58c-3.74,0-7.04,1.55-9.91,4.66c-2.87,3.11-5.09,7.56-6.65,13.34c-1.57,5.79-2.35,12.43-2.35,19.93v8.48
		c0,11.69,1.75,20.97,5.24,27.85c3.49,6.88,8.07,10.32,13.74,10.32c3.76,0,7.07-1.55,9.94-4.64c2.87-3.09,5.08-7.5,6.62-13.23
		c1.54-5.73,2.32-12.38,2.32-19.96V216.05z"/>
	<path class="st1" d="M487.98,212.94h-18.41v-17.36h21.82v-15.32h-33.52v82.32h33.46v-15.27h-21.75v-19.68h18.41V212.94z
		 M437.85,246.66c-1.12,1.41-2.65,2.12-4.59,2.12c-3.02,0-5.21-1.05-6.55-3.14c-1.35-2.09-2.02-5.34-2.02-9.75h-11.74
		c0,5.43,0.81,10.22,2.42,14.39c1.61,4.17,4.01,7.44,7.21,9.84c3.19,2.39,6.75,3.59,10.69,3.59c5.58,0,9.97-2.05,13.18-6.16
		c3.2-4.11,4.8-9.76,4.8-16.96c0-9.01-2.62-16.08-7.87-21.2c-2.16-2.11-4.92-4.08-8.27-5.91c-3.36-1.83-5.7-3.6-7.04-5.31
		c-1.33-1.71-2-3.63-2-5.74c0-2.41,0.61-4.4,1.82-5.96c1.21-1.56,2.86-2.35,4.95-2.35c2.07,0,3.71,0.92,4.92,2.77
		c1.21,1.85,1.82,4.45,1.82,7.8h11.67c0-5.01-0.77-9.47-2.3-13.37c-1.53-3.9-3.69-6.91-6.45-9.02c-2.77-2.11-5.9-3.17-9.39-3.17
		c-3.58,0-6.8,0.97-9.67,2.91c-2.87,1.94-5.09,4.66-6.66,8.14c-1.57,3.49-2.35,7.51-2.35,12.07c0,9.16,3.15,16.36,9.44,21.6
		c1.93,1.62,4.42,3.3,7.47,5.03c3.05,1.73,5.18,3.41,6.39,5.03c1.21,1.62,1.82,3.88,1.82,6.78
		C439.53,243.26,438.97,245.25,437.85,246.66z"/>
	<polygon class="st1" points="537.26,180.26 525.59,180.26 525.59,231.48 508.41,180.26 496.7,180.26 496.7,262.58 508.41,262.58 
		508.41,211.35 525.62,262.58 537.26,262.58 	"/>
</g>
</svg>
